<svg version="1.2" xmlns="http://www.w3.org/2000/svg" viewBox="0 0 48 48" width="48" height="48">
	<title>jwtdecode</title>
	<style>
		.s0 { fill: #d63aff } 
		.s1 { fill: #00b9f1 } 
		.s2 { fill: #00f2e6 } 
		.s3 { fill: #4000bf } 
		.s4 { fill: #fb015b } 
	</style>
	<path id="JWT" class="s0" aria-label="JWT"  d="m14.3 4.2v6.1q0 2.5-1.6 3.7-1.6 1.2-4.3 1.2-1.4 0-2.6-0.4-1.2-0.4-1.9-1-1.5-1.3-1.5-2.7 0-0.2 0.1-0.3 0.1-0.1 0.3-0.1h3.6q0.3 0 0.4 0.4 0.3 0.9 1.5 0.9 0.8 0 1.2-0.3 0.5-0.4 0.5-1v-3.6h-5.9q-0.1 0-0.3-0.1-0.1-0.2-0.1-0.4v-2.4q0-0.1 0.1-0.3 0.2-0.1 0.3-0.1h9.8q0.1 0 0.3 0.1 0.1 0.2 0.1 0.3z"/>
	<path id="JWT" class="s1" aria-label="JWT"  d="m21.9 15h-2.3q-0.3 0-0.5-0.2-0.2-0.2-0.2-0.4l-1.4-10.2q0-0.2 0.1-0.3 0.1-0.1 0.3-0.1h2.7q0.3 0 0.5 0.2 0.2 0.2 0.3 0.5l0.5 4.9 0.9-2.6q0.1-0.1 0.2-0.3 0.2-0.1 0.5-0.1h1.1q0.3 0 0.5 0.1 0.2 0.2 0.2 0.3l0.9 2.6 0.6-4.9q0-0.3 0.2-0.5 0.2-0.2 0.5-0.2h2.8q0.1 0 0.2 0.1 0.1 0.1 0.1 0.3l-1.4 10.2q0 0.2-0.2 0.4-0.2 0.2-0.5 0.2h-2.3q-0.2 0-0.4-0.1-0.2-0.2-0.3-0.3l-1.4-3.4-1.5 3.4q-0.1 0.1-0.2 0.3-0.2 0.1-0.5 0.1z"/>
	<path id="JWT" class="s2" aria-label="JWT"  d="m33.7 3.8h11q0.2 0 0.3 0.1 0.2 0.2 0.2 0.3v2.6q0 0.2-0.2 0.3-0.1 0.1-0.3 0.1h-3.4v7.4q0 0.1-0.1 0.3-0.2 0.1-0.4 0.1h-3.2q-0.2 0-0.4-0.1-0.1-0.2-0.1-0.3v-7.4h-3.4q-0.2 0-0.3-0.1-0.2-0.1-0.2-0.3v-2.6q0-0.1 0.2-0.3 0.1-0.1 0.3-0.1z"/>
	<path id="{}" class="s3" aria-label="{}"  d="m9.2 38.5v-1.4q0-0.6 0.6-0.8l0.4-0.2q0.8-0.3 0.8-1.9 0-1.6 0.5-2.7 0.6-1.1 1.5-1.8 1.7-1.2 4.3-1.2 0.2 0 0.3 0.1 0.2 0.1 0.2 0.3v3q0 0.1-0.1 0.3-0.2 0.1-0.3 0.1-1.2 0.1-1.7 0.6-0.5 0.4-0.5 1.7 0 1.2-0.4 2.1-0.5 0.9-1.2 1.1 0.7 0.2 1.2 1.2 0.4 1 0.4 2.1 0 1.2 0.5 1.7 0.5 0.4 1.7 0.5 0.1 0.1 0.3 0.2 0.1 0.1 0.1 0.3v2.9q0 0.2-0.2 0.3-0.1 0.2-0.3 0.2-2.6 0-4.3-1.3-0.9-0.6-1.5-1.7-0.5-1.1-0.5-2.7 0-1.6-0.8-2l-0.4-0.1q-0.6-0.3-0.6-0.9zm29.6-1.4v1.4q0 0.6-0.6 0.9l-0.4 0.1q-0.8 0.4-0.8 2 0 1.6-0.6 2.7-0.5 1.1-1.4 1.7-1.7 1.3-4.3 1.3-0.2 0-0.4-0.2-0.1-0.1-0.1-0.3v-2.9q0-0.2 0.1-0.3 0.2-0.1 0.3-0.2 1.2-0.1 1.7-0.5 0.5-0.5 0.5-1.7 0-1.1 0.4-2.1 0.5-1 1.2-1.2-0.7-0.2-1.2-1.1-0.4-0.9-0.4-2.1 0-1.3-0.5-1.7-0.5-0.5-1.7-0.6-0.1 0-0.3-0.1-0.1-0.2-0.1-0.3v-3q0-0.2 0.1-0.3 0.2-0.1 0.4-0.1 2.6 0 4.3 1.2 0.9 0.7 1.4 1.8 0.6 1.1 0.6 2.7 0 1.6 0.8 1.9l0.4 0.2q0.6 0.2 0.6 0.8z"/>
	<path id="Shape 2" class="s4" d="m23.8 28.4l-4.2-8.5q-0.1-0.2-0.1-0.3 0.1-0.1 0.2-0.1h8.6q0.1 0 0.2 0.1 0 0.1-0.1 0.3l-4.2 8.5q-0.1 0.1-0.2 0.1-0.1 0-0.2-0.1z"/>
</svg>